<svg width="17" height="17" viewBox="0 0 17 17" fill="none" xmlns="http://www.w3.org/2000/svg">
<path d="M10.9789 8.49997C10.9794 8.5932 10.9615 8.68561 10.9263 8.77191C10.891 8.85821 10.8391 8.9367 10.7735 9.00289L7.94013 11.8362C7.87408 11.9023 7.79568 11.9547 7.70939 11.9904C7.6231 12.0261 7.53061 12.0445 7.43721 12.0445C7.34381 12.0445 7.25133 12.0261 7.16504 11.9904C7.07874 11.9547 7.00034 11.9023 6.9343 11.8362C6.86825 11.7702 6.81586 11.6918 6.78012 11.6055C6.74438 11.5192 6.72598 11.4267 6.72598 11.3333C6.72598 11.2399 6.74438 11.1474 6.78012 11.0611C6.81586 10.9748 6.86825 10.8964 6.9343 10.8304L9.27888 8.49997L7.02638 6.16248C6.95392 6.09732 6.89569 6.01791 6.85533 5.92921C6.81496 5.84052 6.79333 5.74446 6.79179 5.64702C6.79024 5.54959 6.80882 5.45288 6.84636 5.36296C6.88389 5.27303 6.93958 5.19182 7.00993 5.12439C7.08029 5.05697 7.1638 5.00479 7.25524 4.97111C7.34668 4.93744 7.44409 4.92299 7.54137 4.92868C7.63865 4.93436 7.73371 4.96006 7.8206 5.00416C7.9075 5.04826 7.98436 5.10982 8.04638 5.18498L10.7805 8.01831C10.9054 8.14784 10.9763 8.32006 10.9789 8.49997Z" fill="#15192C"/>
</svg>
