<svg width="17" height="17" viewBox="0 0 17 17" fill="none" xmlns="http://www.w3.org/2000/svg">
<path d="M8.50016 10.9791C8.40694 10.9797 8.31453 10.9618 8.22823 10.9265C8.14193 10.8913 8.06343 10.8394 7.99725 10.7737L5.16392 7.94037C5.09787 7.87433 5.04548 7.79592 5.00974 7.70963C4.974 7.62334 4.9556 7.53086 4.9556 7.43746C4.9556 7.34406 4.974 7.25157 5.00974 7.16528C5.04548 7.07899 5.09787 7.00059 5.16392 6.93454C5.22996 6.8685 5.30837 6.81611 5.39466 6.78037C5.48095 6.74462 5.57343 6.72623 5.66683 6.72623C5.76023 6.72623 5.85272 6.74462 5.93901 6.78037C6.0253 6.81611 6.1037 6.8685 6.16975 6.93454L8.50016 9.27912L10.8377 7.02662C10.9028 6.95417 10.9822 6.89594 11.0709 6.85557C11.1596 6.81521 11.2557 6.79358 11.3531 6.79203C11.4505 6.79049 11.5473 6.80907 11.6372 6.8466C11.7271 6.88414 11.8083 6.93982 11.8757 7.01018C11.9432 7.08053 11.9954 7.16404 12.029 7.25548C12.0627 7.34693 12.0771 7.44433 12.0715 7.54161C12.0658 7.63889 12.0401 7.73395 11.996 7.82085C11.9519 7.90774 11.8903 7.9846 11.8152 8.04662L8.98183 10.7808C8.85229 10.9057 8.68008 10.9766 8.50016 10.9791Z" fill="#15192C"/>
</svg>
