<svg width="56" height="56" viewBox="0 0 56 56" fill="none" xmlns="http://www.w3.org/2000/svg">
<g clip-path="url(#clip0_101_430)">
<path d="M46.641 27.0013C46.4497 23.3285 45.1723 19.7951 42.9707 16.849C42.2999 17.5715 41.5828 18.2496 40.824 18.879C38.4928 20.8153 35.8878 22.3958 33.0937 23.569C33.4834 24.3857 33.8404 25.1767 34.1554 25.9233V25.9303C34.2442 26.139 34.3298 26.349 34.412 26.5603C37.9447 26.1637 41.6687 26.3083 45.2784 26.796C45.759 26.8613 46.2117 26.9313 46.641 27.0013ZM24.7427 9.61799C27.0166 12.8221 29.1135 16.1481 31.024 19.5813C33.8777 18.4567 36.2367 17.038 38.136 15.4583C38.7953 14.915 39.4159 14.3263 39.9934 13.6967C36.6356 10.8727 32.3874 9.3271 28 9.33332C26.9081 9.33258 25.8182 9.42705 24.7427 9.61566V9.61799ZM9.92369 23.3263C11.5132 23.2862 13.1009 23.1905 14.6837 23.0393C18.5095 22.6971 22.3027 22.0558 26.0284 21.1213C24.0812 17.7385 21.979 14.4473 19.7284 11.2583C17.3244 12.4493 15.2046 14.1433 13.5129 16.2255C11.8212 18.3077 10.5971 20.7294 9.92369 23.3263ZM13.4937 39.7483C14.399 38.4253 15.589 36.9367 17.1687 35.3173C20.5614 31.8407 24.5654 29.134 29.1994 27.6407L29.344 27.5987C28.959 26.7493 28.5974 25.991 28.2334 25.277C23.9494 26.5253 19.4367 27.3047 14.9404 27.7083C12.747 27.9067 10.78 27.993 9.33335 28.007C9.32922 32.283 10.7994 36.4298 13.496 39.7483H13.4937ZM35.0117 45.3017C34.1119 40.7639 32.8382 36.3084 31.2037 31.9807C26.5324 33.677 22.8107 36.1573 19.9337 39.116C18.7726 40.2882 17.7423 41.583 16.8607 42.9777C20.0779 45.3782 23.9859 46.6724 28 46.6667C30.4031 46.6701 32.7842 46.2082 35.0117 45.3063V45.3017ZM39.382 42.7933C43.025 39.9928 45.5066 35.9466 46.3517 31.43C45.5584 31.2317 44.5527 31.0333 43.4467 30.8793C40.9877 30.5252 38.4925 30.4993 36.0267 30.8023C37.4152 34.7196 38.5362 38.7266 39.382 42.7957V42.7933ZM28 51.3333C15.113 51.3333 4.66669 40.887 4.66669 28C4.66669 15.113 15.113 4.66666 28 4.66666C40.887 4.66666 51.3334 15.113 51.3334 28C51.3334 40.887 40.887 51.3333 28 51.3333Z" fill="#FF43B4"/>
</g>
<defs>
<clipPath id="clip0_101_430">
<rect width="56" height="56" fill="white"/>
</clipPath>
</defs>
</svg>
