<svg width="168" height="169" viewBox="0 0 168 169" fill="none" xmlns="http://www.w3.org/2000/svg">
<path d="M26.9949 25.7433C18.938 32.9773 12.4067 41.7473 7.78406 51.5389C3.16145 61.3306 0.540573 71.9467 0.0751661 82.7647C-0.390241 93.5826 1.30919 104.385 5.07378 114.537C8.83837 124.69 14.5923 133.988 21.9982 141.887L31.964 132.544C25.802 125.972 21.0145 118.235 17.8822 109.788C14.75 101.34 13.336 92.3528 13.7232 83.3518C14.1104 74.3509 16.2911 65.5179 20.1373 57.3709C23.9835 49.2239 29.4178 41.9269 36.1214 35.9079L26.9949 25.7433Z" fill="#D0D2DA"/>
<path d="M167.591 86.2604C167.591 69.5957 162.764 53.2877 153.693 39.3079C144.623 25.3282 131.697 14.2752 116.478 7.4851C101.259 0.69504 84.3995 -1.54135 67.9369 1.04629C51.4743 3.63393 36.1137 10.9348 23.7119 22.0663L40.4961 40.7657C49.2853 32.8768 60.1714 27.7026 71.8386 25.8687C83.5057 24.0349 95.4543 25.6198 106.24 30.4319C117.025 35.2441 126.186 43.0774 132.615 52.9849C139.043 62.8925 142.464 74.45 142.464 86.2604H167.591Z" fill="#FD2254"/>
<path d="M20.9398 142.818C32.2816 154.928 47.0025 163.349 63.1911 166.987C79.3797 170.625 96.2881 169.311 111.721 163.217C127.153 157.123 140.397 146.529 149.732 132.812C159.068 119.096 164.063 102.889 164.071 86.2964L148.973 86.2899C148.967 99.8545 144.883 113.104 137.251 124.318C129.619 135.532 118.792 144.192 106.175 149.174C93.5588 154.157 79.7358 155.23 66.5012 152.256C53.2666 149.283 41.2319 142.398 31.9597 132.497L20.9398 142.818Z" fill="#00B7FE"/>
</svg>
