<svg width="17" height="17" viewBox="0 0 17 17" fill="none" xmlns="http://www.w3.org/2000/svg">
<path fill-rule="evenodd" clip-rule="evenodd" d="M12.5863 5.9371H15.5833C15.5833 3.53075 14.1415 2.125 11.6985 2.125H5.30147C2.8585 2.125 1.41665 3.53075 1.41665 5.90641V11.0936C1.41665 13.4692 2.8585 14.875 5.30147 14.875H11.6985C14.1415 14.875 15.5833 13.4692 15.5833 11.0936V10.8726H12.5863C11.1953 10.8726 10.0678 9.77323 10.0678 8.41712C10.0678 7.061 11.1953 5.96166 12.5863 5.96166V5.9371ZM12.5863 6.99295H15.0544C15.3465 6.99295 15.5833 7.22381 15.5833 7.5086V9.30108C15.5799 9.58448 15.3451 9.81342 15.0544 9.81673H12.6429C11.9388 9.82597 11.323 9.35592 11.1633 8.68722C11.0833 8.27211 11.1956 7.84376 11.4701 7.51698C11.7445 7.19019 12.1531 6.99838 12.5863 6.99295ZM12.6933 8.87752H12.9263C13.2253 8.87752 13.4677 8.64116 13.4677 8.34959C13.4677 8.05803 13.2253 7.82167 12.9263 7.82167H12.6933C12.5503 7.82003 12.4125 7.87428 12.3108 7.97231C12.2091 8.07034 12.1518 8.204 12.1518 8.34345C12.1518 8.63603 12.3932 8.87415 12.6933 8.87752ZM4.77258 5.9371H8.77073C9.06978 5.9371 9.31221 5.70074 9.31221 5.40918C9.31221 5.11762 9.06978 4.88126 8.77073 4.88126H4.77258C4.47597 4.88124 4.23455 5.11388 4.2311 5.40304C4.23108 5.69562 4.47252 5.93374 4.77258 5.9371Z" fill="#D0D2DA"/>
</svg>
