<svg width="17" height="17" viewBox="0 0 17 17" fill="none" xmlns="http://www.w3.org/2000/svg">
<path fill-rule="evenodd" clip-rule="evenodd" d="M7.00919 7.95458C6.69929 7.95458 6.45426 8.19541 6.45426 8.5C6.45426 8.7975 6.69929 9.04541 7.00919 9.04541H11.3333V12.4312C11.3333 14.1667 9.89914 15.5833 8.12625 15.5833H4.61651C2.85082 15.5833 1.41665 14.1737 1.41665 12.4383V4.56875C1.41665 2.82625 2.85803 1.41667 4.62371 1.41667H8.14067C9.89914 1.41667 11.3333 2.82625 11.3333 4.56167V7.95458H7.00919ZM13.9047 6.0493L15.9731 8.11055C16.0793 8.2168 16.136 8.35139 16.136 8.50014C16.136 8.6418 16.0793 8.78347 15.9731 8.88264L13.9047 10.9439C13.7985 11.0501 13.6568 11.1068 13.5222 11.1068C13.3806 11.1068 13.2389 11.0501 13.1326 10.9439C12.9201 10.7314 12.9201 10.3843 13.1326 10.1718L14.266 9.04555H11.3335V7.95472H14.266L13.1326 6.82847C12.9201 6.61597 12.9201 6.26889 13.1326 6.05639C13.3451 5.83681 13.6922 5.83681 13.9047 6.0493Z" fill="#D0D2DA"/>
</svg>
