<svg width="17" height="17" viewBox="0 0 17 17" fill="none" xmlns="http://www.w3.org/2000/svg">
<path fill-rule="evenodd" clip-rule="evenodd" d="M6.32239 11.6096H10.1376C10.4251 11.6096 10.6636 11.3687 10.6636 11.0783C10.6636 10.7879 10.4251 10.5542 10.1376 10.5542H6.32239C6.03485 10.5542 5.7964 10.7879 5.7964 11.0783C5.7964 11.3687 6.03485 11.6096 6.32239 11.6096ZM8.69285 7.01249H6.32239C6.03485 7.01249 5.7964 7.25332 5.7964 7.54374C5.7964 7.83416 6.03485 8.06791 6.32239 8.06791H8.69285C8.9804 8.06791 9.21884 7.83416 9.21884 7.54374C9.21884 7.25332 8.9804 7.01249 8.69285 7.01249ZM13.6978 6.39312C13.8626 6.39122 14.0421 6.38915 14.2052 6.38915C14.3806 6.38915 14.5208 6.53082 14.5208 6.7079V12.4029C14.5208 14.1596 13.1112 15.5833 11.3719 15.5833H5.7894C3.96596 15.5833 2.47917 14.0887 2.47917 12.2471V4.61123C2.47917 2.85457 3.89583 1.41665 5.64212 1.41665H9.38716C9.56951 1.41665 9.70977 1.5654 9.70977 1.74249V4.02332C9.70977 5.31957 10.7688 6.38207 12.0522 6.38915C12.352 6.38915 12.6162 6.39139 12.8475 6.39335C13.0275 6.39488 13.1874 6.39623 13.3286 6.39623C13.4284 6.39623 13.5578 6.39474 13.6978 6.39312ZM13.8912 5.35925C13.3147 5.36138 12.6351 5.35925 12.1463 5.35429C11.3706 5.35429 10.7317 4.709 10.7317 3.92559V2.05842C10.7317 1.75313 11.0985 1.60155 11.3082 1.82184C11.6878 2.22049 12.2095 2.7685 12.7288 3.31398C13.2466 3.8579 13.762 4.39931 14.1317 4.78763C14.3365 5.00225 14.1864 5.35854 13.8912 5.35925Z" fill="#FF6A00"/>
</svg>
