<svg width="17" height="17" viewBox="0 0 17 17" fill="none" xmlns="http://www.w3.org/2000/svg">
<path fill-rule="evenodd" clip-rule="evenodd" d="M5.53208 1.41667H11.4686C13.6567 1.41667 14.875 2.6775 14.875 4.83792V12.155C14.875 14.3508 13.6567 15.5833 11.4686 15.5833H5.53208C3.37875 15.5833 2.125 14.3508 2.125 12.155V4.83792C2.125 2.6775 3.37875 1.41667 5.53208 1.41667ZM5.72332 4.71749V4.71041H7.84053C8.14582 4.71041 8.39373 4.95833 8.39373 5.2622C8.39373 5.57458 8.14582 5.82249 7.84053 5.82249H5.72332C5.41803 5.82249 5.17082 5.57458 5.17082 5.26999C5.17082 4.96541 5.41803 4.71749 5.72332 4.71749ZM5.72332 9.02416H11.2766C11.5812 9.02416 11.8291 8.77624 11.8291 8.47166C11.8291 8.16708 11.5812 7.91845 11.2766 7.91845H5.72332C5.41803 7.91845 5.17082 8.16708 5.17082 8.47166C5.17082 8.77624 5.41803 9.02416 5.72332 9.02416ZM5.72332 12.2612H11.2767C11.5593 12.2329 11.7725 11.9914 11.7725 11.7087C11.7725 11.4183 11.5593 11.1775 11.2767 11.1492H5.72332C5.51082 11.1279 5.30541 11.2271 5.19207 11.4112C5.07874 11.5883 5.07874 11.8221 5.19207 12.0062C5.30541 12.1833 5.51082 12.2896 5.72332 12.2612Z" fill="#551FFF"/>
</svg>
