<svg width="17" height="17" viewBox="0 0 17 17" fill="none" xmlns="http://www.w3.org/2000/svg">
<path fill-rule="evenodd" clip-rule="evenodd" d="M14.4516 9.61923C14.705 9.75382 14.9004 9.96631 15.0379 10.1788C15.3058 10.618 15.2841 11.1563 15.0235 11.6309L14.5167 12.4809C14.2489 12.9342 13.7494 13.2176 13.2355 13.2176C12.9821 13.2176 12.6998 13.1467 12.4681 13.0051C12.2799 12.8846 12.0628 12.8421 11.8311 12.8421C11.1145 12.8421 10.5137 13.4301 10.4919 14.1313C10.4919 14.9459 9.82597 15.5834 8.9935 15.5834H8.00901C7.1693 15.5834 6.50333 14.9459 6.50333 14.1313C6.48885 13.4301 5.88803 12.8421 5.17138 12.8421C4.9325 12.8421 4.71533 12.8846 4.53436 13.0051C4.30272 13.1467 4.01316 13.2176 3.76704 13.2176C3.24584 13.2176 2.74636 12.9342 2.47852 12.4809L1.97904 11.6309C1.71121 11.1705 1.69673 10.618 1.96457 10.1788C2.08039 9.96631 2.29755 9.75382 2.54367 9.61923C2.74636 9.52006 2.87666 9.35715 2.99972 9.1659C3.36166 8.55673 3.1445 7.75632 2.5292 7.39507C1.81255 6.99132 1.58091 6.09173 1.99352 5.39049L2.47852 4.55465C2.89838 3.8534 3.796 3.60549 4.51988 4.01632C5.14966 4.35632 5.96765 4.12965 6.33684 3.52757C6.45266 3.32924 6.51781 3.11674 6.50333 2.90424C6.48885 2.62799 6.56848 2.3659 6.70602 2.1534C6.97386 1.71424 7.45886 1.4309 7.9873 1.41674H9.00797C9.54365 1.41674 10.0287 1.71424 10.2965 2.1534C10.4268 2.3659 10.5137 2.62799 10.4919 2.90424C10.4775 3.11674 10.5426 3.32924 10.6584 3.52757C11.0276 4.12965 11.8456 4.35632 12.4826 4.01632C13.1993 3.60549 14.1041 3.8534 14.5167 4.55465L15.0017 5.39049C15.4216 6.09173 15.19 6.99132 14.4661 7.39507C13.8508 7.75632 13.6336 8.55673 14.0028 9.1659C14.1186 9.35715 14.2489 9.52006 14.4516 9.61923ZM6.45264 8.50715C6.45264 9.61923 7.37198 10.5046 8.50848 10.5046C9.64498 10.5046 10.5426 9.61923 10.5426 8.50715C10.5426 7.39506 9.64498 6.50257 8.50848 6.50257C7.37198 6.50257 6.45264 7.39506 6.45264 8.50715Z" fill="#D0D2DA"/>
</svg>
