<svg width="17" height="17" viewBox="0 0 17 17" fill="none" xmlns="http://www.w3.org/2000/svg">
<path fill-rule="evenodd" clip-rule="evenodd" d="M10.0671 5.49837C10.0671 7.37104 8.53468 8.87175 6.62245 8.87175C4.71092 8.87175 3.17781 7.37104 3.17781 5.49837C3.17781 3.62571 4.71092 2.125 6.62245 2.125C8.53468 2.125 10.0671 3.62571 10.0671 5.49837ZM1.41667 12.6915C1.41667 10.958 3.81475 10.5242 6.62245 10.5242C9.44539 10.5242 11.8282 10.9729 11.8282 12.7078C11.8282 14.4413 9.43014 14.875 6.62245 14.875C3.7995 14.875 1.41667 14.4264 1.41667 12.6915ZM11.4562 5.55953C11.4562 6.51317 11.1637 7.40301 10.6508 8.14216C10.5974 8.21818 10.6446 8.32067 10.7374 8.33696C10.8664 8.358 10.9987 8.3709 11.1339 8.37361C12.4785 8.40823 13.6851 7.56047 14.0185 6.28375C14.5127 4.38937 13.0628 2.68842 11.2157 2.68842C11.0154 2.68842 10.8234 2.70879 10.6363 2.74612C10.6106 2.75155 10.5829 2.76377 10.569 2.78549C10.551 2.81331 10.5642 2.84929 10.5822 2.87304C11.1374 3.63528 11.4562 4.56313 11.4562 5.55953ZM13.6831 9.7058C14.5868 9.87888 15.1808 10.2311 15.4269 10.745C15.6355 11.1658 15.6355 11.6545 15.4269 12.0753C15.0505 12.8708 13.8362 13.1267 13.3642 13.1925C13.2665 13.2061 13.1882 13.1246 13.1986 13.0283C13.4398 10.8237 11.522 9.77842 11.0258 9.53815C11.005 9.52661 11.0001 9.51032 11.0022 9.49946C11.0036 9.49267 11.0126 9.48181 11.0285 9.47977C12.1021 9.45941 13.2568 9.60399 13.6831 9.7058Z" fill="#00B7FE"/>
</svg>
