<svg width="17" height="17" viewBox="0 0 17 17" fill="none" xmlns="http://www.w3.org/2000/svg">
<path d="M7.3172 11.7533H2.85419" stroke="#92959E" stroke-width="1.05582" stroke-linecap="round" stroke-linejoin="round"/>
<path d="M9.30783 4.88776L13.7708 4.88776" stroke="#92959E" stroke-width="1.05582" stroke-linecap="round" stroke-linejoin="round"/>
<path fill-rule="evenodd" clip-rule="evenodd" d="M6.18112 4.84942C6.18112 3.93167 5.43159 3.18749 4.50723 3.18749C3.58287 3.18749 2.83334 3.93167 2.83334 4.84942C2.83334 5.76718 3.58287 6.51135 4.50723 6.51135C5.43159 6.51135 6.18112 5.76718 6.18112 4.84942Z" stroke="#92959E" stroke-width="1.05582" stroke-linecap="round" stroke-linejoin="round"/>
<path fill-rule="evenodd" clip-rule="evenodd" d="M14.1666 11.7256C14.1666 10.8078 13.4177 10.0636 12.4933 10.0636C11.5684 10.0636 10.8189 10.8078 10.8189 11.7256C10.8189 12.6433 11.5684 13.3875 12.4933 13.3875C13.4177 13.3875 14.1666 12.6433 14.1666 11.7256Z" stroke="#92959E" stroke-width="1.05582" stroke-linecap="round" stroke-linejoin="round"/>
</svg>
