<svg width="17" height="17" viewBox="0 0 17 17" fill="none" xmlns="http://www.w3.org/2000/svg">
<path fill-rule="evenodd" clip-rule="evenodd" d="M8.73118 1.56516C8.84429 1.46363 8.99392 1.41041 9.14708 1.41724C12.3847 1.51416 15.0906 3.86451 15.581 7.00585C15.5841 7.0246 15.5841 7.04373 15.581 7.06249C15.5915 7.21112 15.5413 7.35776 15.4414 7.46996C15.3415 7.58216 15.2001 7.65068 15.0486 7.66037L9.60893 8.01909C9.42905 8.03504 9.25064 7.97585 9.11755 7.85605C8.98445 7.73625 8.909 7.56695 8.90974 7.38975L8.5441 2.04659V1.95848C8.55076 1.8082 8.61806 1.6667 8.73118 1.56516ZM8.35807 9.41624L13.0728 9.11416L13.1049 9.12674C13.3074 9.13005 13.5002 9.21215 13.641 9.35497C13.7817 9.49778 13.8589 9.68962 13.8554 9.88825C13.6696 12.5956 11.6848 14.8576 8.98361 15.4404C6.28246 16.0232 3.51344 14.7867 2.18717 12.4056C1.79718 11.7199 1.55074 10.9645 1.46231 10.184C1.42801 9.95277 1.41299 9.71914 1.41741 9.48547C1.42635 6.60665 3.47597 4.12182 6.34386 3.51296C6.69104 3.44798 7.03913 3.62132 7.1906 3.93463C7.22831 3.99148 7.25848 4.05281 7.2804 4.11714C7.33417 4.94701 7.38993 5.76902 7.44546 6.58757C7.48931 7.23401 7.53302 7.87829 7.57548 8.52257C7.57329 8.67434 7.59714 8.8254 7.64604 8.96941C7.76115 9.25275 8.04761 9.43252 8.35807 9.41624Z" fill="#FD2254"/>
</svg>
