<svg width="17" height="17" viewBox="0 0 17 17" fill="none" xmlns="http://www.w3.org/2000/svg">
<path d="M7.31719 11.7533H2.85419" stroke="#92959E" stroke-width="1.05582" stroke-linecap="round" stroke-linejoin="round"/>
<path d="M9.30784 4.88777H13.7708" stroke="#92959E" stroke-width="1.05582" stroke-linecap="round" stroke-linejoin="round"/>
<path fill-rule="evenodd" clip-rule="evenodd" d="M6.18112 4.84943C6.18112 3.93167 5.43159 3.1875 4.50723 3.1875C3.58286 3.1875 2.83333 3.93167 2.83333 4.84943C2.83333 5.76718 3.58286 6.51136 4.50723 6.51136C5.43159 6.51136 6.18112 5.76718 6.18112 4.84943Z" stroke="#92959E" stroke-width="1.05582" stroke-linecap="round" stroke-linejoin="round"/>
<path fill-rule="evenodd" clip-rule="evenodd" d="M14.1667 11.7256C14.1667 10.8078 13.4177 10.0636 12.4934 10.0636C11.5684 10.0636 10.8189 10.8078 10.8189 11.7256C10.8189 12.6433 11.5684 13.3875 12.4934 13.3875C13.4177 13.3875 14.1667 12.6433 14.1667 11.7256Z" stroke="#92959E" stroke-width="1.05582" stroke-linecap="round" stroke-linejoin="round"/>
</svg>
