<svg width="17" height="17" viewBox="0 0 17 17" fill="none" xmlns="http://www.w3.org/2000/svg">
<path fill-rule="evenodd" clip-rule="evenodd" d="M5.3452 2.32186C5.46292 2.40684 5.65276 2.60202 5.65276 2.60202C6.38972 3.29274 7.49972 5.0107 7.85619 5.8823C7.86365 5.8823 8.07504 6.40055 8.08333 6.64706V6.67987C8.08333 7.05762 7.87194 7.41097 7.53205 7.59185C7.39194 7.66643 7.05114 7.73578 6.88672 7.76924C6.83226 7.78032 6.79715 7.78747 6.79509 7.78956C6.30931 7.8636 5.56405 7.91239 4.74585 7.91239C3.88703 7.91239 3.10944 7.8636 2.63112 7.77273C2.62283 7.77273 2.18596 7.68271 2.04006 7.62466C1.8295 7.53464 1.65127 7.36974 1.5377 7.16446C1.45646 7.00041 1.41667 6.8271 1.41667 6.64706C1.42413 6.45776 1.54599 6.10441 1.60236 5.96475C1.95882 5.04351 3.12519 3.28433 3.83812 2.61043C3.91217 2.53528 3.99645 2.45654 4.0551 2.40175C4.08639 2.37252 4.11038 2.35011 4.12163 2.33869C4.29986 2.19903 4.51871 2.125 4.75414 2.125C4.96387 2.125 5.17443 2.19062 5.3452 2.32186ZM12.9119 7.19792C12.9119 7.56895 12.616 7.86931 12.2504 7.86931C11.8848 7.86931 11.5889 7.56895 11.5889 7.19792L11.4065 3.95459C11.4065 3.48176 11.7845 3.09896 12.2504 3.09896C12.7163 3.09896 13.0935 3.48176 13.0935 3.95459L12.9119 7.19792ZM14.9599 9.3752C15.1705 9.46607 15.3487 9.63013 15.4623 9.83541C15.5435 9.99947 15.5833 10.1728 15.5833 10.3537C15.5759 10.5421 15.454 10.8963 15.3968 11.036C15.0412 11.9564 13.874 13.7156 13.1619 14.3904C13.0891 14.4637 13.0064 14.5409 12.9479 14.5955L12.9479 14.5955L12.9478 14.5955C12.9151 14.6261 12.89 14.6495 12.8784 14.6613C12.6993 14.8009 12.4813 14.875 12.2467 14.875C12.0353 14.875 11.8247 14.8094 11.6548 14.6773C11.5371 14.5931 11.3472 14.398 11.3472 14.398C10.6094 13.7081 9.50026 11.9892 9.1438 11.1176C9.13551 11.1176 8.92495 10.6002 8.91666 10.3537V10.3209C8.91666 9.94226 9.12722 9.5889 9.46793 9.40802C9.60776 9.33422 9.94748 9.26468 10.1123 9.23094C10.1673 9.21968 10.2028 9.21241 10.2049 9.2103C10.6907 9.13627 11.4359 9.08747 12.2541 9.08747C13.113 9.08747 13.8905 9.13627 14.3689 9.22713C14.3763 9.22713 14.814 9.31715 14.9599 9.3752ZM4.74975 9.13079C4.38417 9.13079 4.08822 9.43114 4.08822 9.80216L3.90585 13.0454C3.90585 13.5182 4.28386 13.901 4.74975 13.901C5.21563 13.901 5.59282 13.5182 5.59282 13.0454L5.41127 9.80216C5.41127 9.43114 5.11533 9.13079 4.74975 9.13079Z" fill="#551FFF"/>
</svg>
