<svg width="17" height="17" viewBox="0 0 17 17" fill="none" xmlns="http://www.w3.org/2000/svg">
<path fill-rule="evenodd" clip-rule="evenodd" d="M9.91667 3.1875C9.91667 2.60076 9.44091 2.125 8.85417 2.125C8.26744 2.125 7.79167 2.60076 7.79167 3.1875C7.79167 3.77423 8.26744 4.24999 8.85417 4.24999C9.44091 4.24999 9.91667 3.77423 9.91667 3.1875Z" stroke="#92959E" stroke-width="1.05582" stroke-linecap="round" stroke-linejoin="round"/>
<path fill-rule="evenodd" clip-rule="evenodd" d="M9.91667 8.85417C9.91667 8.26744 9.44091 7.79167 8.85417 7.79167C8.26744 7.79167 7.79167 8.26744 7.79167 8.85417C7.79167 9.44091 8.26744 9.91667 8.85417 9.91667C9.44091 9.91667 9.91667 9.44091 9.91667 8.85417Z" stroke="#92959E" stroke-width="1.05582" stroke-linecap="round" stroke-linejoin="round"/>
<path fill-rule="evenodd" clip-rule="evenodd" d="M9.91667 14.5208C9.91667 13.9341 9.44128 13.4583 8.85454 13.4583C8.26744 13.4583 7.79167 13.9341 7.79167 14.5208C7.79167 15.1076 8.26744 15.5833 8.85454 15.5833C9.44128 15.5833 9.91667 15.1076 9.91667 14.5208Z" stroke="#92959E" stroke-width="1.05582" stroke-linecap="round" stroke-linejoin="round"/>
</svg>
