<svg width="17" height="17" viewBox="0 0 17 17" fill="none" xmlns="http://www.w3.org/2000/svg">
<path d="M10.213 3.8887C9.87577 3.82641 9.56609 4.0416 9.50189 4.37075C9.4377 4.6999 9.65356 5.02126 9.98158 5.08567C10.9692 5.27821 11.7318 6.04268 11.925 7.03367V7.03437C11.9801 7.31964 12.2312 7.52703 12.5204 7.52703C12.5592 7.52703 12.598 7.5235 12.6375 7.51642C12.9656 7.45059 13.1814 7.12993 13.1172 6.80008C12.8287 5.31997 11.6894 4.1768 10.213 3.8887Z" fill="#D0D2DA"/>
<path d="M10.1689 1.42228C10.0109 1.39963 9.85214 1.44635 9.72587 1.54686C9.59607 1.64879 9.51494 1.79603 9.49731 1.96095C9.45992 2.29435 9.70047 2.59589 10.0334 2.63341C12.3296 2.88965 14.1143 4.67838 14.3725 6.98171C14.4071 7.29033 14.666 7.52321 14.975 7.52321C14.9982 7.52321 15.0208 7.5218 15.0441 7.51897C15.2056 7.50127 15.3496 7.42128 15.4511 7.29387C15.552 7.16646 15.5979 7.0079 15.5795 6.8458C15.2578 3.97195 13.0336 1.74152 10.1689 1.42228Z" fill="#D0D2DA"/>
<path fill-rule="evenodd" clip-rule="evenodd" d="M7.81413 9.18877C10.6397 12.0136 11.2807 8.74558 13.0798 10.5434C14.8143 12.2774 15.8111 12.6248 13.6136 14.8217C13.3383 15.0429 11.5895 17.7043 5.44324 11.5598C-0.703725 5.4145 1.95611 3.66381 2.17738 3.38863C4.38022 1.18564 4.72164 2.18831 6.45608 3.92227C8.25516 5.72085 4.98853 6.36395 7.81413 9.18877Z" fill="#D0D2DA"/>
</svg>
